# The Great Editor v0.0.1
mtllib floor_1.mtl
o floor_1
v 0.0031192369361432008 -0.019372103077099877 0
v 0.0031192369361432008 -0.019372103077099877 -0.1
v 10.038744206154199 -0.04837553423772963 0
v 10.038744206154199 -0.04837553423772963 -0.1
v 10.017675675971478 -23.308853707787698 0
v 10.017675675971478 -23.308853707787698 -0.1
v 0.0702649162457521 -23.308853707787698 0
v 0.0702649162457521 -23.308853707787698 -0.1
vt 0.0031192369361432008 -0.019372103077099877 0
vt 10.038744206154199 -0.04837553423772963 0
vt 10.017675675971478 -23.308853707787698 0
vt 0.0702649162457521 -23.308853707787698 0
vn 0 0 1
vn 0 0 -1
usemtl floor_1
s off
f 1/1/1 7/4/1 3/2/1
f 4/2/2 8/4/2 2/1/2
f 3/2/1 7/4/1 5/3/1
f 6/3/2 8/4/2 4/2/2
